<mxfile host="app.diagrams.net" modified="2023-05-15T15:47:29.846Z" agent="Mozilla/5.0 (Windows NT 10.0; Win64; x64) AppleWebKit/537.36 (KHTML, like Gecko) Chrome/113.0.0.0 Safari/537.36 Edg/113.0.1774.42" version="21.3.2" etag="124vW_MMSpcM4q-IurUW" type="github">
  <diagram name="Page-1" id="1VmPhp5HVR4wU1k63Io3">
    <mxGraphModel>
      <root>
        <mxCell id="0" />
        <mxCell id="1" parent="0" />
      </root>
    </mxGraphModel>
  </diagram>
</mxfile>
